<mxfile host="app.diagrams.net" modified="2023-01-27T13:42:26.706Z" agent="5.0 (X11)" etag="ULhk1sW7idSHQwIOOMJ3" version="20.8.13" type="github">
  <diagram name="Page-1" id="20XX9Y6twfZZXFquQQmE">
    <mxGraphModel dx="2868" dy="1506" grid="0" gridSize="10" guides="1" tooltips="1" connect="1" arrows="1" fold="1" page="1" pageScale="1" pageWidth="1400" pageHeight="1100" math="0" shadow="0">
      <root>
        <mxCell id="0" />
        <mxCell id="1" parent="0" />
        <mxCell id="rnyN-8rtSYzR6qUXUjKF-11" value="" style="shape=cylinder3;whiteSpace=wrap;html=1;boundedLbl=1;backgroundOutline=1;size=15;fontSize=22;labelBackgroundColor=none;" vertex="1" parent="1">
          <mxGeometry x="304" y="169" width="750" height="300" as="geometry" />
        </mxCell>
        <mxCell id="rnyN-8rtSYzR6qUXUjKF-12" value="Database" style="text;html=1;strokeColor=none;fillColor=none;align=center;verticalAlign=middle;whiteSpace=wrap;rounded=0;fontSize=22;labelBackgroundColor=none;" vertex="1" parent="1">
          <mxGeometry x="579" y="212" width="200" height="30" as="geometry" />
        </mxCell>
        <mxCell id="rnyN-8rtSYzR6qUXUjKF-13" value="" style="rounded=0;whiteSpace=wrap;html=1;fontSize=22;labelBackgroundColor=none;" vertex="1" parent="1">
          <mxGeometry x="389" y="259" width="300" height="60" as="geometry" />
        </mxCell>
        <mxCell id="rnyN-8rtSYzR6qUXUjKF-14" style="edgeStyle=orthogonalEdgeStyle;rounded=0;orthogonalLoop=1;jettySize=auto;html=1;exitX=0.5;exitY=1;exitDx=0;exitDy=0;strokeWidth=2;fontSize=22;fontColor=default;labelBackgroundColor=none;" edge="1" parent="1" source="rnyN-8rtSYzR6qUXUjKF-13" target="rnyN-8rtSYzR6qUXUjKF-13">
          <mxGeometry relative="1" as="geometry" />
        </mxCell>
        <mxCell id="rnyN-8rtSYzR6qUXUjKF-15" value="Account" style="text;html=1;strokeColor=none;fillColor=none;align=center;verticalAlign=middle;whiteSpace=wrap;rounded=0;fontSize=22;labelBackgroundColor=none;" vertex="1" parent="1">
          <mxGeometry x="489" y="274" width="100" height="30" as="geometry" />
        </mxCell>
        <mxCell id="rnyN-8rtSYzR6qUXUjKF-16" value="" style="rounded=0;whiteSpace=wrap;html=1;fontSize=22;labelBackgroundColor=none;" vertex="1" parent="1">
          <mxGeometry x="389" y="319" width="100" height="90" as="geometry" />
        </mxCell>
        <mxCell id="rnyN-8rtSYzR6qUXUjKF-17" value="" style="rounded=0;whiteSpace=wrap;html=1;fontSize=22;labelBackgroundColor=none;" vertex="1" parent="1">
          <mxGeometry x="489" y="319" width="100" height="90" as="geometry" />
        </mxCell>
        <mxCell id="rnyN-8rtSYzR6qUXUjKF-18" value="" style="rounded=0;whiteSpace=wrap;html=1;fontSize=22;labelBackgroundColor=none;" vertex="1" parent="1">
          <mxGeometry x="589" y="319" width="100" height="90" as="geometry" />
        </mxCell>
        <mxCell id="rnyN-8rtSYzR6qUXUjKF-20" value="Username" style="text;html=1;strokeColor=none;fillColor=none;align=center;verticalAlign=middle;whiteSpace=wrap;rounded=0;fontSize=18;labelBackgroundColor=none;" vertex="1" parent="1">
          <mxGeometry x="384" y="324" width="110" height="30" as="geometry" />
        </mxCell>
        <mxCell id="rnyN-8rtSYzR6qUXUjKF-21" value="Password" style="text;html=1;strokeColor=none;fillColor=none;align=center;verticalAlign=middle;whiteSpace=wrap;rounded=0;fontSize=18;labelBackgroundColor=none;" vertex="1" parent="1">
          <mxGeometry x="494" y="324" width="90" height="30" as="geometry" />
        </mxCell>
        <mxCell id="rnyN-8rtSYzR6qUXUjKF-22" value="Key" style="text;html=1;strokeColor=none;fillColor=none;align=center;verticalAlign=middle;whiteSpace=wrap;rounded=0;fontSize=18;labelBackgroundColor=none;" vertex="1" parent="1">
          <mxGeometry x="594" y="324" width="90" height="30" as="geometry" />
        </mxCell>
        <mxCell id="rnyN-8rtSYzR6qUXUjKF-23" value="" style="rounded=0;whiteSpace=wrap;html=1;fontSize=22;labelBackgroundColor=none;" vertex="1" parent="1">
          <mxGeometry x="764" y="259" width="200" height="60" as="geometry" />
        </mxCell>
        <mxCell id="rnyN-8rtSYzR6qUXUjKF-24" style="edgeStyle=orthogonalEdgeStyle;rounded=0;orthogonalLoop=1;jettySize=auto;html=1;exitX=0.5;exitY=1;exitDx=0;exitDy=0;strokeWidth=2;fontSize=22;fontColor=default;labelBackgroundColor=none;" edge="1" parent="1" source="rnyN-8rtSYzR6qUXUjKF-23" target="rnyN-8rtSYzR6qUXUjKF-23">
          <mxGeometry relative="1" as="geometry" />
        </mxCell>
        <mxCell id="rnyN-8rtSYzR6qUXUjKF-25" value="Data" style="text;html=1;strokeColor=none;fillColor=none;align=center;verticalAlign=middle;whiteSpace=wrap;rounded=0;fontSize=22;labelBackgroundColor=none;" vertex="1" parent="1">
          <mxGeometry x="814" y="274" width="100" height="30" as="geometry" />
        </mxCell>
        <mxCell id="rnyN-8rtSYzR6qUXUjKF-26" value="" style="rounded=0;whiteSpace=wrap;html=1;fontSize=22;labelBackgroundColor=none;" vertex="1" parent="1">
          <mxGeometry x="764" y="319" width="100" height="90" as="geometry" />
        </mxCell>
        <mxCell id="rnyN-8rtSYzR6qUXUjKF-27" value="" style="rounded=0;whiteSpace=wrap;html=1;fontSize=22;labelBackgroundColor=none;" vertex="1" parent="1">
          <mxGeometry x="864" y="319" width="100" height="90" as="geometry" />
        </mxCell>
        <mxCell id="rnyN-8rtSYzR6qUXUjKF-29" value="Account" style="text;html=1;strokeColor=none;fillColor=none;align=center;verticalAlign=middle;whiteSpace=wrap;rounded=0;fontSize=18;labelBackgroundColor=none;" vertex="1" parent="1">
          <mxGeometry x="759" y="324" width="110" height="30" as="geometry" />
        </mxCell>
        <mxCell id="rnyN-8rtSYzR6qUXUjKF-30" value="Data" style="text;html=1;strokeColor=none;fillColor=none;align=center;verticalAlign=middle;whiteSpace=wrap;rounded=0;fontSize=18;labelBackgroundColor=none;" vertex="1" parent="1">
          <mxGeometry x="869" y="324" width="90" height="30" as="geometry" />
        </mxCell>
        <mxCell id="rnyN-8rtSYzR6qUXUjKF-32" value="" style="rounded=0;whiteSpace=wrap;html=1;labelBackgroundColor=none;" vertex="1" parent="1">
          <mxGeometry x="598" y="634" width="142" height="60" as="geometry" />
        </mxCell>
        <mxCell id="rnyN-8rtSYzR6qUXUjKF-33" value="API" style="text;html=1;strokeColor=none;fillColor=none;align=center;verticalAlign=middle;whiteSpace=wrap;rounded=0;fontSize=18;labelBackgroundColor=none;" vertex="1" parent="1">
          <mxGeometry x="641.5" y="649" width="55" height="30" as="geometry" />
        </mxCell>
        <mxCell id="rnyN-8rtSYzR6qUXUjKF-36" value="" style="rhombus;whiteSpace=wrap;html=1;fontSize=18;labelBackgroundColor=none;" vertex="1" parent="1">
          <mxGeometry x="112" y="504" width="185" height="100" as="geometry" />
        </mxCell>
        <mxCell id="rnyN-8rtSYzR6qUXUjKF-37" value="" style="rhombus;whiteSpace=wrap;html=1;fontSize=18;labelBackgroundColor=none;" vertex="1" parent="1">
          <mxGeometry x="322" y="504" width="185" height="100" as="geometry" />
        </mxCell>
        <mxCell id="rnyN-8rtSYzR6qUXUjKF-38" value="" style="rhombus;whiteSpace=wrap;html=1;fontSize=18;labelBackgroundColor=none;" vertex="1" parent="1">
          <mxGeometry x="761" y="505" width="185" height="100" as="geometry" />
        </mxCell>
        <mxCell id="rnyN-8rtSYzR6qUXUjKF-39" value="Does the user exist ?" style="text;html=1;strokeColor=none;fillColor=none;align=center;verticalAlign=middle;whiteSpace=wrap;rounded=0;fontSize=18;labelBackgroundColor=none;" vertex="1" parent="1">
          <mxGeometry x="149.5" y="539" width="110" height="30" as="geometry" />
        </mxCell>
        <mxCell id="rnyN-8rtSYzR6qUXUjKF-40" value="Is the password correct ?" style="text;html=1;strokeColor=none;fillColor=none;align=center;verticalAlign=middle;whiteSpace=wrap;rounded=0;fontSize=18;labelBackgroundColor=none;" vertex="1" parent="1">
          <mxGeometry x="362" y="541" width="110" height="28" as="geometry" />
        </mxCell>
        <mxCell id="rnyN-8rtSYzR6qUXUjKF-41" value="Give me the key" style="text;html=1;strokeColor=none;fillColor=none;align=center;verticalAlign=middle;whiteSpace=wrap;rounded=0;fontSize=18;labelBackgroundColor=none;" vertex="1" parent="1">
          <mxGeometry x="823.5" y="540" width="60" height="30" as="geometry" />
        </mxCell>
        <mxCell id="rnyN-8rtSYzR6qUXUjKF-42" value="" style="rhombus;whiteSpace=wrap;html=1;fontSize=18;labelBackgroundColor=none;" vertex="1" parent="1">
          <mxGeometry x="961" y="500" width="280" height="110" as="geometry" />
        </mxCell>
        <mxCell id="rnyN-8rtSYzR6qUXUjKF-43" value="Give me the data associated with the account" style="text;html=1;strokeColor=none;fillColor=none;align=center;verticalAlign=middle;whiteSpace=wrap;rounded=0;fontSize=18;labelBackgroundColor=none;" vertex="1" parent="1">
          <mxGeometry x="1023.5" y="545" width="157.5" height="30" as="geometry" />
        </mxCell>
        <mxCell id="rnyN-8rtSYzR6qUXUjKF-45" value="" style="endArrow=classic;html=1;rounded=0;fontSize=18;entryX=1;entryY=1;entryDx=0;entryDy=0;exitX=0;exitY=0;exitDx=0;exitDy=0;startArrow=classic;startFill=1;labelBackgroundColor=none;fontColor=default;" edge="1" parent="1" source="rnyN-8rtSYzR6qUXUjKF-32" target="rnyN-8rtSYzR6qUXUjKF-36">
          <mxGeometry width="50" height="50" relative="1" as="geometry">
            <mxPoint x="424" y="679" as="sourcePoint" />
            <mxPoint x="474" y="629" as="targetPoint" />
          </mxGeometry>
        </mxCell>
        <mxCell id="rnyN-8rtSYzR6qUXUjKF-46" value="" style="endArrow=classic;html=1;rounded=0;fontSize=18;exitX=0.25;exitY=0;exitDx=0;exitDy=0;startArrow=classic;startFill=1;labelBackgroundColor=none;fontColor=default;" edge="1" parent="1" source="rnyN-8rtSYzR6qUXUjKF-32" target="rnyN-8rtSYzR6qUXUjKF-37">
          <mxGeometry width="50" height="50" relative="1" as="geometry">
            <mxPoint x="664" y="634" as="sourcePoint" />
            <mxPoint x="714" y="584" as="targetPoint" />
          </mxGeometry>
        </mxCell>
        <mxCell id="rnyN-8rtSYzR6qUXUjKF-47" value="" style="endArrow=classic;html=1;rounded=0;fontSize=18;exitX=0.648;exitY=-0.05;exitDx=0;exitDy=0;exitPerimeter=0;startArrow=classic;startFill=1;labelBackgroundColor=none;fontColor=default;" edge="1" parent="1" source="rnyN-8rtSYzR6qUXUjKF-32" target="rnyN-8rtSYzR6qUXUjKF-38">
          <mxGeometry width="50" height="50" relative="1" as="geometry">
            <mxPoint x="664" y="634" as="sourcePoint" />
            <mxPoint x="714" y="584" as="targetPoint" />
          </mxGeometry>
        </mxCell>
        <mxCell id="rnyN-8rtSYzR6qUXUjKF-48" value="" style="endArrow=classic;html=1;rounded=0;fontSize=18;entryX=0;entryY=1;entryDx=0;entryDy=0;exitX=1;exitY=0;exitDx=0;exitDy=0;startArrow=classic;startFill=1;labelBackgroundColor=none;fontColor=default;" edge="1" parent="1" source="rnyN-8rtSYzR6qUXUjKF-32" target="rnyN-8rtSYzR6qUXUjKF-42">
          <mxGeometry width="50" height="50" relative="1" as="geometry">
            <mxPoint x="664" y="634" as="sourcePoint" />
            <mxPoint x="714" y="584" as="targetPoint" />
          </mxGeometry>
        </mxCell>
        <mxCell id="rnyN-8rtSYzR6qUXUjKF-49" value="/signin" style="rounded=0;whiteSpace=wrap;html=1;fontSize=18;labelBackgroundColor=none;" vertex="1" parent="1">
          <mxGeometry x="374" y="774" width="120" height="60" as="geometry" />
        </mxCell>
        <mxCell id="rnyN-8rtSYzR6qUXUjKF-51" value="/signup" style="rounded=0;whiteSpace=wrap;html=1;fontSize=18;labelBackgroundColor=none;" vertex="1" parent="1">
          <mxGeometry x="624" y="774" width="120" height="60" as="geometry" />
        </mxCell>
        <mxCell id="rnyN-8rtSYzR6qUXUjKF-52" value="/getdata" style="rounded=0;whiteSpace=wrap;html=1;fontSize=18;labelBackgroundColor=none;" vertex="1" parent="1">
          <mxGeometry x="894" y="774" width="120" height="60" as="geometry" />
        </mxCell>
        <mxCell id="rnyN-8rtSYzR6qUXUjKF-53" value="&lt;div&gt;username&lt;/div&gt;&lt;div&gt;password&lt;br&gt;&lt;/div&gt;" style="rounded=0;whiteSpace=wrap;html=1;fontSize=18;labelBackgroundColor=none;" vertex="1" parent="1">
          <mxGeometry x="324" y="934" width="95" height="90" as="geometry" />
        </mxCell>
        <mxCell id="rnyN-8rtSYzR6qUXUjKF-56" value="&lt;div&gt;username&lt;/div&gt;&lt;div&gt;password&lt;br&gt;&lt;/div&gt;" style="rounded=0;whiteSpace=wrap;html=1;fontSize=18;labelBackgroundColor=none;" vertex="1" parent="1">
          <mxGeometry x="584" y="934" width="95" height="90" as="geometry" />
        </mxCell>
        <mxCell id="rnyN-8rtSYzR6qUXUjKF-57" value="key" style="rounded=0;whiteSpace=wrap;html=1;fontSize=18;labelBackgroundColor=none;" vertex="1" parent="1">
          <mxGeometry x="834" y="934" width="95" height="90" as="geometry" />
        </mxCell>
        <mxCell id="rnyN-8rtSYzR6qUXUjKF-58" value="key" style="rounded=0;whiteSpace=wrap;html=1;fontSize=18;labelBackgroundColor=none;" vertex="1" parent="1">
          <mxGeometry x="439" y="934" width="100" height="90" as="geometry" />
        </mxCell>
        <mxCell id="rnyN-8rtSYzR6qUXUjKF-59" value="key" style="rounded=0;whiteSpace=wrap;html=1;fontSize=18;labelBackgroundColor=none;" vertex="1" parent="1">
          <mxGeometry x="694" y="934" width="95" height="90" as="geometry" />
        </mxCell>
        <mxCell id="rnyN-8rtSYzR6qUXUjKF-61" value="data" style="rounded=0;whiteSpace=wrap;html=1;fontSize=18;labelBackgroundColor=none;" vertex="1" parent="1">
          <mxGeometry x="974" y="934" width="95" height="90" as="geometry" />
        </mxCell>
        <mxCell id="rnyN-8rtSYzR6qUXUjKF-62" value="" style="endArrow=classic;html=1;rounded=0;fontSize=18;entryX=0.5;entryY=1;entryDx=0;entryDy=0;labelBackgroundColor=none;fontColor=default;" edge="1" parent="1" target="rnyN-8rtSYzR6qUXUjKF-49">
          <mxGeometry width="50" height="50" relative="1" as="geometry">
            <mxPoint x="369" y="934" as="sourcePoint" />
            <mxPoint x="419" y="884" as="targetPoint" />
          </mxGeometry>
        </mxCell>
        <mxCell id="rnyN-8rtSYzR6qUXUjKF-63" value="" style="endArrow=classic;html=1;rounded=0;fontSize=18;entryX=0.5;entryY=0;entryDx=0;entryDy=0;exitX=0.5;exitY=1;exitDx=0;exitDy=0;labelBackgroundColor=none;fontColor=default;" edge="1" parent="1" source="rnyN-8rtSYzR6qUXUjKF-49" target="rnyN-8rtSYzR6qUXUjKF-58">
          <mxGeometry width="50" height="50" relative="1" as="geometry">
            <mxPoint x="404" y="894" as="sourcePoint" />
            <mxPoint x="444" y="844" as="targetPoint" />
          </mxGeometry>
        </mxCell>
        <mxCell id="rnyN-8rtSYzR6qUXUjKF-64" value="" style="endArrow=classic;html=1;rounded=0;fontSize=18;entryX=0.5;entryY=1;entryDx=0;entryDy=0;labelBackgroundColor=none;fontColor=default;" edge="1" parent="1">
          <mxGeometry width="50" height="50" relative="1" as="geometry">
            <mxPoint x="624" y="934" as="sourcePoint" />
            <mxPoint x="689" y="834" as="targetPoint" />
          </mxGeometry>
        </mxCell>
        <mxCell id="rnyN-8rtSYzR6qUXUjKF-65" value="" style="endArrow=classic;html=1;rounded=0;fontSize=18;entryX=0.5;entryY=0;entryDx=0;entryDy=0;exitX=0.5;exitY=1;exitDx=0;exitDy=0;labelBackgroundColor=none;fontColor=default;" edge="1" parent="1">
          <mxGeometry width="50" height="50" relative="1" as="geometry">
            <mxPoint x="689" y="834" as="sourcePoint" />
            <mxPoint x="744" y="934" as="targetPoint" />
          </mxGeometry>
        </mxCell>
        <mxCell id="rnyN-8rtSYzR6qUXUjKF-66" value="" style="endArrow=classic;html=1;rounded=0;fontSize=18;entryX=0.5;entryY=1;entryDx=0;entryDy=0;labelBackgroundColor=none;fontColor=default;" edge="1" parent="1">
          <mxGeometry width="50" height="50" relative="1" as="geometry">
            <mxPoint x="894" y="934" as="sourcePoint" />
            <mxPoint x="959" y="834" as="targetPoint" />
          </mxGeometry>
        </mxCell>
        <mxCell id="rnyN-8rtSYzR6qUXUjKF-67" value="" style="endArrow=classic;html=1;rounded=0;fontSize=18;entryX=0.5;entryY=0;entryDx=0;entryDy=0;exitX=0.5;exitY=1;exitDx=0;exitDy=0;labelBackgroundColor=none;fontColor=default;" edge="1" parent="1">
          <mxGeometry width="50" height="50" relative="1" as="geometry">
            <mxPoint x="959" y="834" as="sourcePoint" />
            <mxPoint x="1014" y="934" as="targetPoint" />
          </mxGeometry>
        </mxCell>
        <mxCell id="rnyN-8rtSYzR6qUXUjKF-71" value="" style="endArrow=none;html=1;rounded=0;fontSize=18;exitX=0.5;exitY=0;exitDx=0;exitDy=0;labelBackgroundColor=none;fontColor=default;" edge="1" parent="1" source="rnyN-8rtSYzR6qUXUjKF-36" target="rnyN-8rtSYzR6qUXUjKF-11">
          <mxGeometry width="50" height="50" relative="1" as="geometry">
            <mxPoint x="764" y="779" as="sourcePoint" />
            <mxPoint x="814" y="729" as="targetPoint" />
          </mxGeometry>
        </mxCell>
        <mxCell id="rnyN-8rtSYzR6qUXUjKF-72" value="" style="endArrow=none;html=1;rounded=0;fontSize=18;exitX=0.4;exitY=0.08;exitDx=0;exitDy=0;exitPerimeter=0;labelBackgroundColor=none;fontColor=default;" edge="1" parent="1" source="rnyN-8rtSYzR6qUXUjKF-37" target="rnyN-8rtSYzR6qUXUjKF-11">
          <mxGeometry width="50" height="50" relative="1" as="geometry">
            <mxPoint x="541.06" y="659" as="sourcePoint" />
            <mxPoint x="579.0011764705882" y="629" as="targetPoint" />
          </mxGeometry>
        </mxCell>
        <mxCell id="rnyN-8rtSYzR6qUXUjKF-73" value="" style="endArrow=none;html=1;rounded=0;fontSize=18;entryX=0.58;entryY=1;entryDx=0;entryDy=0;entryPerimeter=0;labelBackgroundColor=none;fontColor=default;" edge="1" parent="1" source="rnyN-8rtSYzR6qUXUjKF-38" target="rnyN-8rtSYzR6qUXUjKF-11">
          <mxGeometry width="50" height="50" relative="1" as="geometry">
            <mxPoint x="558" y="667" as="sourcePoint" />
            <mxPoint x="576.9277566539922" y="629" as="targetPoint" />
          </mxGeometry>
        </mxCell>
        <mxCell id="rnyN-8rtSYzR6qUXUjKF-74" value="" style="endArrow=none;html=1;rounded=0;fontSize=18;entryX=0.855;entryY=1;entryDx=0;entryDy=-4.35;entryPerimeter=0;labelBackgroundColor=none;fontColor=default;" edge="1" parent="1" source="rnyN-8rtSYzR6qUXUjKF-42" target="rnyN-8rtSYzR6qUXUjKF-11">
          <mxGeometry width="50" height="50" relative="1" as="geometry">
            <mxPoint x="767.8005390835579" y="669.1078167115902" as="sourcePoint" />
            <mxPoint x="749" y="629" as="targetPoint" />
          </mxGeometry>
        </mxCell>
        <mxCell id="rnyN-8rtSYzR6qUXUjKF-75" value="" style="endArrow=none;html=1;rounded=0;entryX=0.25;entryY=1;entryDx=0;entryDy=0;exitX=0.5;exitY=0;exitDx=0;exitDy=0;" edge="1" parent="1" source="rnyN-8rtSYzR6qUXUjKF-49" target="rnyN-8rtSYzR6qUXUjKF-32">
          <mxGeometry width="50" height="50" relative="1" as="geometry">
            <mxPoint x="444" y="744" as="sourcePoint" />
            <mxPoint x="974" y="804" as="targetPoint" />
          </mxGeometry>
        </mxCell>
        <mxCell id="rnyN-8rtSYzR6qUXUjKF-76" value="" style="endArrow=none;html=1;rounded=0;entryX=0.5;entryY=1;entryDx=0;entryDy=0;exitX=0.448;exitY=0.007;exitDx=0;exitDy=0;exitPerimeter=0;" edge="1" parent="1" source="rnyN-8rtSYzR6qUXUjKF-51" target="rnyN-8rtSYzR6qUXUjKF-32">
          <mxGeometry width="50" height="50" relative="1" as="geometry">
            <mxPoint x="444" y="794" as="sourcePoint" />
            <mxPoint x="643.5" y="704" as="targetPoint" />
          </mxGeometry>
        </mxCell>
        <mxCell id="rnyN-8rtSYzR6qUXUjKF-77" value="" style="endArrow=none;html=1;rounded=0;entryX=0.799;entryY=1.007;entryDx=0;entryDy=0;exitX=0.5;exitY=0;exitDx=0;exitDy=0;entryPerimeter=0;" edge="1" parent="1" source="rnyN-8rtSYzR6qUXUjKF-52" target="rnyN-8rtSYzR6qUXUjKF-32">
          <mxGeometry width="50" height="50" relative="1" as="geometry">
            <mxPoint x="454" y="794" as="sourcePoint" />
            <mxPoint x="653.5" y="714" as="targetPoint" />
          </mxGeometry>
        </mxCell>
        <mxCell id="rnyN-8rtSYzR6qUXUjKF-78" value="Text" style="text;html=1;strokeColor=none;fillColor=none;align=center;verticalAlign=middle;whiteSpace=wrap;rounded=0;" vertex="1" parent="1">
          <mxGeometry x="800" y="686" width="60" height="30" as="geometry" />
        </mxCell>
        <mxCell id="rnyN-8rtSYzR6qUXUjKF-80" value="Basic authentification method" style="text;html=1;strokeColor=none;fillColor=none;align=center;verticalAlign=middle;whiteSpace=wrap;rounded=0;fontSize=50;" vertex="1" parent="1">
          <mxGeometry x="281" y="46" width="838" height="98" as="geometry" />
        </mxCell>
        <mxCell id="rnyN-8rtSYzR6qUXUjKF-81" value="" style="rhombus;whiteSpace=wrap;html=1;fontSize=18;labelBackgroundColor=none;" vertex="1" parent="1">
          <mxGeometry x="555" y="505" width="185" height="100" as="geometry" />
        </mxCell>
        <mxCell id="rnyN-8rtSYzR6qUXUjKF-82" value="Save the new account" style="text;html=1;strokeColor=none;fillColor=none;align=center;verticalAlign=middle;whiteSpace=wrap;rounded=0;fontSize=18;labelBackgroundColor=none;" vertex="1" parent="1">
          <mxGeometry x="572.25" y="545" width="150.5" height="30" as="geometry" />
        </mxCell>
        <mxCell id="rnyN-8rtSYzR6qUXUjKF-84" value="" style="endArrow=classic;startArrow=classic;html=1;rounded=0;fontSize=50;exitX=0.466;exitY=0.027;exitDx=0;exitDy=0;exitPerimeter=0;entryX=0.5;entryY=1;entryDx=0;entryDy=0;" edge="1" parent="1" source="rnyN-8rtSYzR6qUXUjKF-32" target="rnyN-8rtSYzR6qUXUjKF-81">
          <mxGeometry width="50" height="50" relative="1" as="geometry">
            <mxPoint x="592" y="611" as="sourcePoint" />
            <mxPoint x="642" y="561" as="targetPoint" />
          </mxGeometry>
        </mxCell>
        <mxCell id="rnyN-8rtSYzR6qUXUjKF-85" value="" style="endArrow=none;html=1;rounded=0;fontSize=50;entryX=0.435;entryY=1.001;entryDx=0;entryDy=0;entryPerimeter=0;exitX=0.5;exitY=0;exitDx=0;exitDy=0;" edge="1" parent="1" source="rnyN-8rtSYzR6qUXUjKF-81" target="rnyN-8rtSYzR6qUXUjKF-11">
          <mxGeometry width="50" height="50" relative="1" as="geometry">
            <mxPoint x="592" y="611" as="sourcePoint" />
            <mxPoint x="642" y="561" as="targetPoint" />
          </mxGeometry>
        </mxCell>
      </root>
    </mxGraphModel>
  </diagram>
</mxfile>
